<?xml version="1.0" standalone="no"?><!DOCTYPE svg PUBLIC "-//W3C//DTD SVG 1.1//EN" "http://www.w3.org/Graphics/SVG/1.1/DTD/svg11.dtd"><svg t="1585971537691" class="icon" viewBox="0 0 1024 1024" version="1.1" xmlns="http://www.w3.org/2000/svg" p-id="5798" xmlns:xlink="http://www.w3.org/1999/xlink" width="200" height="200"><defs></defs><path d="M509.61066667 1020.01777778c279.32444445 0 506.65244445-227.328 506.65244444-506.65244445S788.93511111 6.71288889 509.61066667 6.71288889 2.95822222 234.04088889 2.95822222 513.36533333s227.21422222 506.65244445 506.65244445 506.65244445z m0-942.99022223c240.52622222 0 436.33777778 195.69777778 436.33777778 436.33777778 0 240.52622222-195.69777778 436.33777778-436.33777778 436.33777778s-436.33777778-195.69777778-436.33777778-436.33777778 195.69777778-436.33777778 436.33777778-436.33777778zM263.28177778 513.25155555c0-19.456 15.70133333-35.15733333 35.15733333-35.15733333h175.90044444V302.19377778c0-19.456 15.70133333-35.15733333 35.15733334-35.15733333 19.456 0 35.15733333 15.70133333 35.15733333 35.15733333v175.90044444h175.90044445c19.456 0 35.15733333 15.70133333 35.15733333 35.15733333 0 19.456-15.70133333 35.15733333-35.15733333 35.15733334H544.768v175.90044444c0 19.456-15.70133333 35.15733333-35.15733333 35.15733334-19.456 0-35.15733333-15.70133333-35.15733334-35.15733334V548.52266667H298.43911111c-19.456 0-35.15733333-15.81511111-35.15733333-35.27111112z" fill="#333303" p-id="5799"></path></svg>